<svg version="1.1" viewBox="0.0 0.0 377.9527559055118 377.9527559055118" fill="none" stroke="none" stroke-linecap="square" stroke-miterlimit="10" xmlns:xlink="http://www.w3.org/1999/xlink" xmlns="http://www.w3.org/2000/svg"><clipPath id="p.0"><path d="m0 0l377.95276 0l0 377.95276l-377.95276 0l0 -377.95276z" clip-rule="nonzero"/></clipPath><g clip-path="url(#p.0)"><path fill="#f7eee1" d="m0 0l377.95276 0l0 377.95276l-377.95276 0z" fill-rule="evenodd"/><path fill="#000000" fill-opacity="0.0" d="m38.425198 21.291338l301.10236 0l0 335.37006l-301.10236 0z" fill-rule="evenodd"/><path fill="#b85b43" d="m198.7826 44.179523q26.0 0 42.0 7.796875q16.0 7.796875 30.0 18.203121q5.1875 4.0 8.0 4.0q7.59375 0 10.0 -24.406246l9.1875 0q-0.796875 14.796871 -1.203125 35.999996q-0.390625 21.203125 -0.390625 56.0l-9.203125 0q-2.796875 -16.796875 -6.796875 -32.390625q-4.0 -15.609375 -13.203125 -26.8125q-11.59375 -14.796875 -30.40625 -22.984371q-18.796875 -8.203125 -38.796875 -8.203125q-20.0 0 -36.203125 9.796875q-16.1875 9.796871 -27.796875 28.203121q-11.593758 18.390625 -17.796883 44.203125q-6.203125 25.796875 -6.203125 58.1875q0 72.000015 23.203133 105.406265q23.203125 33.390625 72.0 33.390625q14.40625 0 25.0 -4.1875q10.609375 -4.203125 16.609375 -8.203125q7.59375 -5.203125 9.59375 -9.796875q2.0 -4.609375 2.0 -12.203125l0 -38.40625q0 -16.39064 -3.203125 -24.39064q-3.203125 -8.0 -11.796875 -10.796875q-8.59375 -2.8125 -25.40625 -3.203125l0 -8.0q7.203125 0.390625 16.796875 0.59375q9.609375 0.203125 20.203125 0.40625q10.609375 0.1875 19.40625 0.1875q13.203125 0 23.796875 -0.390625q10.609375 -0.40625 17.796875 -0.796875l0 8.0q-8.796875 0.390625 -13.203125 2.796875q-4.390625 2.390625 -5.796875 9.59375q-1.390625 7.203125 -1.390625 22.0l0 79.20314l-8.0 0q-0.40625 -6.796875 -3.015625 -14.796875q-2.59375 -8.0 -7.78125 -8.0q-2.40625 0 -4.8125 1.203125q-2.390625 1.1875 -8.390625 5.59375q-13.203125 10.0 -28.0 15.796875q-14.796875 5.796875 -34.40625 5.796875q-41.203125 0 -70.609375 -17.0q-29.390633 -17.0 -45.000008 -49.0q-15.59375 -32.000015 -15.59375 -76.39064q0 -46.796875 16.796875 -80.796875q16.8125 -34.0 45.812508 -52.593746q29.0 -18.609375 66.203125 -18.609375z" fill-rule="nonzero"/></g></svg>